<mxfile host="app.diagrams.net" agent="Mozilla/5.0 (Windows NT 10.0; Win64; x64) AppleWebKit/537.36 (KHTML, like Gecko) Chrome/127.0.0.0 Safari/537.36 Edg/127.0.0.0" version="24.7.5">
  <diagram name="第 1 页" id="ECGQn0BFaTDFKbABgOI8">
    <mxGraphModel dx="1380" dy="906" grid="1" gridSize="10" guides="1" tooltips="1" connect="1" arrows="1" fold="1" page="1" pageScale="1" pageWidth="827" pageHeight="1169" math="0" shadow="0">
      <root>
        <mxCell id="0" />
        <mxCell id="1" parent="0" />
        <mxCell id="_Ax3SJe7UOr891yu-cr8-8" value="" style="group;fillStyle=zigzag-line;fillColor=default;container=0;" vertex="1" connectable="0" parent="1">
          <mxGeometry x="211.25" y="385" width="28" height="140" as="geometry" />
        </mxCell>
        <mxCell id="_Ax3SJe7UOr891yu-cr8-27" value="" style="endArrow=classic;html=1;rounded=0;entryX=0;entryY=0;entryDx=0;entryDy=5;entryPerimeter=0;" edge="1" parent="1" source="_Ax3SJe7UOr891yu-cr8-32" target="_Ax3SJe7UOr891yu-cr8-72">
          <mxGeometry width="50" height="50" relative="1" as="geometry">
            <mxPoint x="176.25" y="320" as="sourcePoint" />
            <mxPoint x="561.25" y="320" as="targetPoint" />
          </mxGeometry>
        </mxCell>
        <mxCell id="_Ax3SJe7UOr891yu-cr8-32" value="&lt;font style=&quot;font-size: 30px;&quot; face=&quot;Times New Roman&quot;&gt;Transmitter&lt;/font&gt;" style="shape=umlLifeline;perimeter=lifelinePerimeter;whiteSpace=wrap;html=1;container=1;dropTarget=0;collapsible=0;recursiveResize=0;outlineConnect=0;portConstraint=eastwest;newEdgeStyle={&quot;curved&quot;:0,&quot;rounded&quot;:0};" vertex="1" parent="1">
          <mxGeometry x="91.25" y="190" width="170" height="380" as="geometry" />
        </mxCell>
        <mxCell id="_Ax3SJe7UOr891yu-cr8-93" value="" style="shape=umlDestroy;whiteSpace=wrap;html=1;strokeWidth=3;targetShapes=umlLifeline;" vertex="1" parent="_Ax3SJe7UOr891yu-cr8-32">
          <mxGeometry x="70" y="362" width="30" height="30" as="geometry" />
        </mxCell>
        <mxCell id="_Ax3SJe7UOr891yu-cr8-41" value="&lt;font style=&quot;font-size: 30px;&quot; face=&quot;Times New Roman&quot;&gt;Receiver&lt;/font&gt;" style="shape=umlLifeline;whiteSpace=wrap;html=1;container=1;dropTarget=0;collapsible=0;recursiveResize=0;outlineConnect=0;portConstraint=eastwest;newEdgeStyle={&quot;curved&quot;:0,&quot;rounded&quot;:0};points=[[0,0,0,0,5],[0,1,0,0,-5],[1,0,0,0,5],[1,1,0,0,-5]];perimeter=rectanglePerimeter;targetShapes=umlLifeline;participant=label;" vertex="1" parent="1">
          <mxGeometry x="441.25" y="190" width="170" height="380" as="geometry" />
        </mxCell>
        <mxCell id="_Ax3SJe7UOr891yu-cr8-72" value="" style="html=1;points=[[0,0,0,0,5],[0,1,0,0,-5],[1,0,0,0,5],[1,1,0,0,-5]];perimeter=orthogonalPerimeter;outlineConnect=0;targetShapes=umlLifeline;portConstraint=eastwest;newEdgeStyle={&quot;curved&quot;:0,&quot;rounded&quot;:0};" vertex="1" parent="_Ax3SJe7UOr891yu-cr8-41">
          <mxGeometry x="80" y="130" width="10" height="80" as="geometry" />
        </mxCell>
        <mxCell id="_Ax3SJe7UOr891yu-cr8-74" value="" style="html=1;points=[[0,0,0,0,5],[0,1,0,0,-5],[1,0,0,0,5],[1,1,0,0,-5]];perimeter=orthogonalPerimeter;outlineConnect=0;targetShapes=umlLifeline;portConstraint=eastwest;newEdgeStyle={&quot;curved&quot;:0,&quot;rounded&quot;:0};" vertex="1" parent="_Ax3SJe7UOr891yu-cr8-41">
          <mxGeometry x="80" y="280" width="10" height="80" as="geometry" />
        </mxCell>
        <mxCell id="_Ax3SJe7UOr891yu-cr8-43" value="&lt;font style=&quot;font-size: 24px;&quot; face=&quot;Times New Roman&quot;&gt;Sub-block 1&lt;/font&gt;" style="text;html=1;align=center;verticalAlign=middle;whiteSpace=wrap;rounded=0;" vertex="1" parent="1">
          <mxGeometry x="181.25" y="250" width="140" height="30" as="geometry" />
        </mxCell>
        <mxCell id="_Ax3SJe7UOr891yu-cr8-46" value="&lt;font style=&quot;font-size: 24px;&quot; face=&quot;Times New Roman&quot;&gt;Decoding on&lt;/font&gt;" style="text;html=1;align=center;verticalAlign=middle;whiteSpace=wrap;rounded=0;" vertex="1" parent="1">
          <mxGeometry x="541.25" y="320" width="130" height="30" as="geometry" />
        </mxCell>
        <mxCell id="_Ax3SJe7UOr891yu-cr8-47" value="" style="group" vertex="1" connectable="0" parent="1">
          <mxGeometry x="191.25" y="430" width="140" height="28" as="geometry" />
        </mxCell>
        <mxCell id="_Ax3SJe7UOr891yu-cr8-9" value="" style="whiteSpace=wrap;html=1;aspect=fixed;fillStyle=cross-hatch;fillColor=#000000;" vertex="1" parent="_Ax3SJe7UOr891yu-cr8-47">
          <mxGeometry width="28" height="28" as="geometry" />
        </mxCell>
        <mxCell id="_Ax3SJe7UOr891yu-cr8-10" value="" style="whiteSpace=wrap;html=1;aspect=fixed;fillStyle=cross-hatch;fillColor=#000000;" vertex="1" parent="_Ax3SJe7UOr891yu-cr8-47">
          <mxGeometry x="28" width="28" height="28" as="geometry" />
        </mxCell>
        <mxCell id="_Ax3SJe7UOr891yu-cr8-11" value="" style="whiteSpace=wrap;html=1;aspect=fixed;fillStyle=cross-hatch;fillColor=#000000;" vertex="1" parent="_Ax3SJe7UOr891yu-cr8-47">
          <mxGeometry x="56" width="28" height="28" as="geometry" />
        </mxCell>
        <mxCell id="_Ax3SJe7UOr891yu-cr8-12" value="" style="whiteSpace=wrap;html=1;aspect=fixed;fillStyle=cross-hatch;fillColor=#000000;" vertex="1" parent="_Ax3SJe7UOr891yu-cr8-47">
          <mxGeometry x="84" width="28" height="28" as="geometry" />
        </mxCell>
        <mxCell id="_Ax3SJe7UOr891yu-cr8-13" value="" style="whiteSpace=wrap;html=1;aspect=fixed;fillColor=#000000;fillStyle=cross-hatch;" vertex="1" parent="_Ax3SJe7UOr891yu-cr8-47">
          <mxGeometry x="112" width="28" height="28" as="geometry" />
        </mxCell>
        <mxCell id="_Ax3SJe7UOr891yu-cr8-132" value="" style="group;rotation=0;fillColor=#B3B3B3;" vertex="1" connectable="0" parent="_Ax3SJe7UOr891yu-cr8-47">
          <mxGeometry width="140" height="28" as="geometry" />
        </mxCell>
        <mxCell id="_Ax3SJe7UOr891yu-cr8-133" value="" style="group;fillColor=#CCCCCC;rotation=-90;" vertex="1" connectable="0" parent="_Ax3SJe7UOr891yu-cr8-132">
          <mxGeometry x="56" y="-56" width="28" height="140" as="geometry" />
        </mxCell>
        <mxCell id="_Ax3SJe7UOr891yu-cr8-134" value="" style="whiteSpace=wrap;html=1;aspect=fixed;fillStyle=cross-hatch;fillColor=none;rotation=0;" vertex="1" parent="_Ax3SJe7UOr891yu-cr8-133">
          <mxGeometry x="-56" y="56" width="28" height="28" as="geometry" />
        </mxCell>
        <mxCell id="_Ax3SJe7UOr891yu-cr8-135" value="" style="whiteSpace=wrap;html=1;aspect=fixed;fillStyle=cross-hatch;fillColor=none;rotation=0;" vertex="1" parent="_Ax3SJe7UOr891yu-cr8-133">
          <mxGeometry x="-28" y="56" width="28" height="28" as="geometry" />
        </mxCell>
        <mxCell id="_Ax3SJe7UOr891yu-cr8-136" value="" style="whiteSpace=wrap;html=1;aspect=fixed;fillStyle=cross-hatch;fillColor=none;rotation=0;" vertex="1" parent="_Ax3SJe7UOr891yu-cr8-133">
          <mxGeometry y="56" width="28" height="28" as="geometry" />
        </mxCell>
        <mxCell id="_Ax3SJe7UOr891yu-cr8-137" value="" style="whiteSpace=wrap;html=1;aspect=fixed;fillStyle=cross-hatch;fillColor=none;rotation=0;" vertex="1" parent="_Ax3SJe7UOr891yu-cr8-133">
          <mxGeometry x="28" y="56" width="28" height="28" as="geometry" />
        </mxCell>
        <mxCell id="_Ax3SJe7UOr891yu-cr8-138" value="" style="whiteSpace=wrap;html=1;aspect=fixed;fillColor=none;fillStyle=cross-hatch;rotation=0;" vertex="1" parent="_Ax3SJe7UOr891yu-cr8-133">
          <mxGeometry x="56" y="56" width="28" height="28" as="geometry" />
        </mxCell>
        <mxCell id="_Ax3SJe7UOr891yu-cr8-53" value="" style="group" vertex="1" connectable="0" parent="1">
          <mxGeometry x="191.25" y="280" width="140" height="28" as="geometry" />
        </mxCell>
        <mxCell id="_Ax3SJe7UOr891yu-cr8-54" value="" style="whiteSpace=wrap;html=1;aspect=fixed;fillStyle=hatch;fillColor=#000000;" vertex="1" parent="_Ax3SJe7UOr891yu-cr8-53">
          <mxGeometry width="28" height="28" as="geometry" />
        </mxCell>
        <mxCell id="_Ax3SJe7UOr891yu-cr8-55" value="" style="whiteSpace=wrap;html=1;aspect=fixed;fillStyle=hatch;fillColor=#000000;" vertex="1" parent="_Ax3SJe7UOr891yu-cr8-53">
          <mxGeometry x="28" width="28" height="28" as="geometry" />
        </mxCell>
        <mxCell id="_Ax3SJe7UOr891yu-cr8-56" value="" style="whiteSpace=wrap;html=1;aspect=fixed;fillStyle=hatch;fillColor=#000000;" vertex="1" parent="_Ax3SJe7UOr891yu-cr8-53">
          <mxGeometry x="56" width="28" height="28" as="geometry" />
        </mxCell>
        <mxCell id="_Ax3SJe7UOr891yu-cr8-57" value="" style="whiteSpace=wrap;html=1;aspect=fixed;fillStyle=hatch;fillColor=#000000;" vertex="1" parent="_Ax3SJe7UOr891yu-cr8-53">
          <mxGeometry x="84" width="28" height="28" as="geometry" />
        </mxCell>
        <mxCell id="_Ax3SJe7UOr891yu-cr8-58" value="" style="whiteSpace=wrap;html=1;aspect=fixed;fillColor=#000000;fillStyle=hatch;" vertex="1" parent="_Ax3SJe7UOr891yu-cr8-53">
          <mxGeometry x="112" width="28" height="28" as="geometry" />
        </mxCell>
        <mxCell id="_Ax3SJe7UOr891yu-cr8-126" value="" style="group;rotation=0;fillColor=#666666;" vertex="1" connectable="0" parent="_Ax3SJe7UOr891yu-cr8-53">
          <mxGeometry width="140" height="28" as="geometry" />
        </mxCell>
        <mxCell id="_Ax3SJe7UOr891yu-cr8-127" value="" style="whiteSpace=wrap;html=1;aspect=fixed;fillStyle=hatch;fillColor=none;rotation=0;autosize=0;treeFolding=0;fixDash=0;" vertex="1" parent="_Ax3SJe7UOr891yu-cr8-126">
          <mxGeometry width="28" height="28" as="geometry" />
        </mxCell>
        <mxCell id="_Ax3SJe7UOr891yu-cr8-128" value="" style="whiteSpace=wrap;html=1;aspect=fixed;fillStyle=hatch;fillColor=none;rotation=0;" vertex="1" parent="_Ax3SJe7UOr891yu-cr8-126">
          <mxGeometry x="28" width="28" height="28" as="geometry" />
        </mxCell>
        <mxCell id="_Ax3SJe7UOr891yu-cr8-129" value="" style="whiteSpace=wrap;html=1;aspect=fixed;fillStyle=hatch;fillColor=none;rotation=0;" vertex="1" parent="_Ax3SJe7UOr891yu-cr8-126">
          <mxGeometry x="56" width="28" height="28" as="geometry" />
        </mxCell>
        <mxCell id="_Ax3SJe7UOr891yu-cr8-130" value="" style="whiteSpace=wrap;html=1;aspect=fixed;fillStyle=hatch;fillColor=none;rotation=0;" vertex="1" parent="_Ax3SJe7UOr891yu-cr8-126">
          <mxGeometry x="84" width="28" height="28" as="geometry" />
        </mxCell>
        <mxCell id="_Ax3SJe7UOr891yu-cr8-131" value="" style="whiteSpace=wrap;html=1;aspect=fixed;fillColor=none;fillStyle=hatch;rotation=0;" vertex="1" parent="_Ax3SJe7UOr891yu-cr8-126">
          <mxGeometry x="112" width="28" height="28" as="geometry" />
        </mxCell>
        <mxCell id="_Ax3SJe7UOr891yu-cr8-59" value="" style="group" vertex="1" connectable="0" parent="1">
          <mxGeometry x="541.25" y="350" width="140" height="28" as="geometry" />
        </mxCell>
        <mxCell id="_Ax3SJe7UOr891yu-cr8-60" value="" style="whiteSpace=wrap;html=1;aspect=fixed;fillStyle=hatch;fillColor=#000000;rounded=0;shadow=0;glass=0;" vertex="1" parent="_Ax3SJe7UOr891yu-cr8-59">
          <mxGeometry width="28" height="28" as="geometry" />
        </mxCell>
        <mxCell id="_Ax3SJe7UOr891yu-cr8-61" value="" style="whiteSpace=wrap;html=1;aspect=fixed;fillStyle=hatch;fillColor=#000000;" vertex="1" parent="_Ax3SJe7UOr891yu-cr8-59">
          <mxGeometry x="28" width="28" height="28" as="geometry" />
        </mxCell>
        <mxCell id="_Ax3SJe7UOr891yu-cr8-62" value="" style="whiteSpace=wrap;html=1;aspect=fixed;fillStyle=hatch;fillColor=#000000;" vertex="1" parent="_Ax3SJe7UOr891yu-cr8-59">
          <mxGeometry x="56" width="28" height="28" as="geometry" />
        </mxCell>
        <mxCell id="_Ax3SJe7UOr891yu-cr8-63" value="" style="whiteSpace=wrap;html=1;aspect=fixed;fillStyle=hatch;fillColor=#000000;" vertex="1" parent="_Ax3SJe7UOr891yu-cr8-59">
          <mxGeometry x="84" width="28" height="28" as="geometry" />
        </mxCell>
        <mxCell id="_Ax3SJe7UOr891yu-cr8-64" value="" style="whiteSpace=wrap;html=1;aspect=fixed;fillColor=#000000;fillStyle=hatch;" vertex="1" parent="_Ax3SJe7UOr891yu-cr8-59">
          <mxGeometry x="112" width="28" height="28" as="geometry" />
        </mxCell>
        <mxCell id="_Ax3SJe7UOr891yu-cr8-146" value="" style="group" vertex="1" connectable="0" parent="_Ax3SJe7UOr891yu-cr8-59">
          <mxGeometry width="140" height="28" as="geometry" />
        </mxCell>
        <mxCell id="_Ax3SJe7UOr891yu-cr8-147" value="" style="whiteSpace=wrap;html=1;aspect=fixed;fillStyle=hatch;fillColor=#000000;" vertex="1" parent="_Ax3SJe7UOr891yu-cr8-146">
          <mxGeometry width="28" height="28" as="geometry" />
        </mxCell>
        <mxCell id="_Ax3SJe7UOr891yu-cr8-148" value="" style="whiteSpace=wrap;html=1;aspect=fixed;fillStyle=hatch;fillColor=#000000;" vertex="1" parent="_Ax3SJe7UOr891yu-cr8-146">
          <mxGeometry x="28" width="28" height="28" as="geometry" />
        </mxCell>
        <mxCell id="_Ax3SJe7UOr891yu-cr8-149" value="" style="whiteSpace=wrap;html=1;aspect=fixed;fillStyle=hatch;fillColor=#000000;" vertex="1" parent="_Ax3SJe7UOr891yu-cr8-146">
          <mxGeometry x="56" width="28" height="28" as="geometry" />
        </mxCell>
        <mxCell id="_Ax3SJe7UOr891yu-cr8-150" value="" style="whiteSpace=wrap;html=1;aspect=fixed;fillStyle=hatch;fillColor=#000000;" vertex="1" parent="_Ax3SJe7UOr891yu-cr8-146">
          <mxGeometry x="84" width="28" height="28" as="geometry" />
        </mxCell>
        <mxCell id="_Ax3SJe7UOr891yu-cr8-151" value="" style="whiteSpace=wrap;html=1;aspect=fixed;fillColor=#000000;fillStyle=hatch;" vertex="1" parent="_Ax3SJe7UOr891yu-cr8-146">
          <mxGeometry x="112" width="28" height="28" as="geometry" />
        </mxCell>
        <mxCell id="_Ax3SJe7UOr891yu-cr8-152" value="" style="group;rotation=0;fillColor=#666666;" vertex="1" connectable="0" parent="_Ax3SJe7UOr891yu-cr8-146">
          <mxGeometry width="140" height="28" as="geometry" />
        </mxCell>
        <mxCell id="_Ax3SJe7UOr891yu-cr8-153" value="" style="whiteSpace=wrap;html=1;aspect=fixed;fillStyle=hatch;fillColor=none;rotation=0;autosize=0;treeFolding=0;fixDash=0;" vertex="1" parent="_Ax3SJe7UOr891yu-cr8-152">
          <mxGeometry width="28" height="28" as="geometry" />
        </mxCell>
        <mxCell id="_Ax3SJe7UOr891yu-cr8-154" value="" style="whiteSpace=wrap;html=1;aspect=fixed;fillStyle=hatch;fillColor=none;rotation=0;" vertex="1" parent="_Ax3SJe7UOr891yu-cr8-152">
          <mxGeometry x="28" width="28" height="28" as="geometry" />
        </mxCell>
        <mxCell id="_Ax3SJe7UOr891yu-cr8-155" value="" style="whiteSpace=wrap;html=1;aspect=fixed;fillStyle=hatch;fillColor=none;rotation=0;" vertex="1" parent="_Ax3SJe7UOr891yu-cr8-152">
          <mxGeometry x="56" width="28" height="28" as="geometry" />
        </mxCell>
        <mxCell id="_Ax3SJe7UOr891yu-cr8-156" value="" style="whiteSpace=wrap;html=1;aspect=fixed;fillStyle=hatch;fillColor=none;rotation=0;" vertex="1" parent="_Ax3SJe7UOr891yu-cr8-152">
          <mxGeometry x="84" width="28" height="28" as="geometry" />
        </mxCell>
        <mxCell id="_Ax3SJe7UOr891yu-cr8-157" value="" style="whiteSpace=wrap;html=1;aspect=fixed;fillColor=none;fillStyle=hatch;rotation=0;" vertex="1" parent="_Ax3SJe7UOr891yu-cr8-152">
          <mxGeometry x="112" width="28" height="28" as="geometry" />
        </mxCell>
        <mxCell id="_Ax3SJe7UOr891yu-cr8-65" value="" style="group" vertex="1" connectable="0" parent="1">
          <mxGeometry x="681.25" y="500" width="140" height="28" as="geometry" />
        </mxCell>
        <mxCell id="_Ax3SJe7UOr891yu-cr8-66" value="" style="whiteSpace=wrap;html=1;aspect=fixed;fillStyle=cross-hatch;fillColor=#000000;" vertex="1" parent="_Ax3SJe7UOr891yu-cr8-65">
          <mxGeometry width="28" height="28" as="geometry" />
        </mxCell>
        <mxCell id="_Ax3SJe7UOr891yu-cr8-67" value="" style="whiteSpace=wrap;html=1;aspect=fixed;fillStyle=cross-hatch;fillColor=#000000;" vertex="1" parent="_Ax3SJe7UOr891yu-cr8-65">
          <mxGeometry x="28" width="28" height="28" as="geometry" />
        </mxCell>
        <mxCell id="_Ax3SJe7UOr891yu-cr8-68" value="" style="whiteSpace=wrap;html=1;aspect=fixed;fillStyle=cross-hatch;fillColor=#000000;" vertex="1" parent="_Ax3SJe7UOr891yu-cr8-65">
          <mxGeometry x="56" width="28" height="28" as="geometry" />
        </mxCell>
        <mxCell id="_Ax3SJe7UOr891yu-cr8-69" value="" style="whiteSpace=wrap;html=1;aspect=fixed;fillStyle=cross-hatch;fillColor=#000000;" vertex="1" parent="_Ax3SJe7UOr891yu-cr8-65">
          <mxGeometry x="84" width="28" height="28" as="geometry" />
        </mxCell>
        <mxCell id="_Ax3SJe7UOr891yu-cr8-70" value="" style="whiteSpace=wrap;html=1;aspect=fixed;fillColor=#000000;fillStyle=cross-hatch;" vertex="1" parent="_Ax3SJe7UOr891yu-cr8-65">
          <mxGeometry x="112" width="28" height="28" as="geometry" />
        </mxCell>
        <mxCell id="_Ax3SJe7UOr891yu-cr8-158" value="" style="group" vertex="1" connectable="0" parent="_Ax3SJe7UOr891yu-cr8-65">
          <mxGeometry width="140" height="28" as="geometry" />
        </mxCell>
        <mxCell id="_Ax3SJe7UOr891yu-cr8-159" value="" style="whiteSpace=wrap;html=1;aspect=fixed;fillStyle=cross-hatch;fillColor=#000000;" vertex="1" parent="_Ax3SJe7UOr891yu-cr8-158">
          <mxGeometry width="28" height="28" as="geometry" />
        </mxCell>
        <mxCell id="_Ax3SJe7UOr891yu-cr8-160" value="" style="whiteSpace=wrap;html=1;aspect=fixed;fillStyle=cross-hatch;fillColor=#000000;" vertex="1" parent="_Ax3SJe7UOr891yu-cr8-158">
          <mxGeometry x="28" width="28" height="28" as="geometry" />
        </mxCell>
        <mxCell id="_Ax3SJe7UOr891yu-cr8-161" value="" style="whiteSpace=wrap;html=1;aspect=fixed;fillStyle=cross-hatch;fillColor=#000000;" vertex="1" parent="_Ax3SJe7UOr891yu-cr8-158">
          <mxGeometry x="56" width="28" height="28" as="geometry" />
        </mxCell>
        <mxCell id="_Ax3SJe7UOr891yu-cr8-162" value="" style="whiteSpace=wrap;html=1;aspect=fixed;fillStyle=cross-hatch;fillColor=#000000;" vertex="1" parent="_Ax3SJe7UOr891yu-cr8-158">
          <mxGeometry x="84" width="28" height="28" as="geometry" />
        </mxCell>
        <mxCell id="_Ax3SJe7UOr891yu-cr8-163" value="" style="whiteSpace=wrap;html=1;aspect=fixed;fillColor=#000000;fillStyle=cross-hatch;" vertex="1" parent="_Ax3SJe7UOr891yu-cr8-158">
          <mxGeometry x="112" width="28" height="28" as="geometry" />
        </mxCell>
        <mxCell id="_Ax3SJe7UOr891yu-cr8-164" value="" style="group;rotation=0;fillColor=#B3B3B3;" vertex="1" connectable="0" parent="_Ax3SJe7UOr891yu-cr8-158">
          <mxGeometry width="140" height="28" as="geometry" />
        </mxCell>
        <mxCell id="_Ax3SJe7UOr891yu-cr8-165" value="" style="group;fillColor=#CCCCCC;rotation=-90;" vertex="1" connectable="0" parent="_Ax3SJe7UOr891yu-cr8-164">
          <mxGeometry x="56" y="-56" width="28" height="140" as="geometry" />
        </mxCell>
        <mxCell id="_Ax3SJe7UOr891yu-cr8-166" value="" style="whiteSpace=wrap;html=1;aspect=fixed;fillStyle=cross-hatch;fillColor=none;rotation=0;" vertex="1" parent="_Ax3SJe7UOr891yu-cr8-165">
          <mxGeometry x="-56" y="56" width="28" height="28" as="geometry" />
        </mxCell>
        <mxCell id="_Ax3SJe7UOr891yu-cr8-167" value="" style="whiteSpace=wrap;html=1;aspect=fixed;fillStyle=cross-hatch;fillColor=none;rotation=0;" vertex="1" parent="_Ax3SJe7UOr891yu-cr8-165">
          <mxGeometry x="-28" y="56" width="28" height="28" as="geometry" />
        </mxCell>
        <mxCell id="_Ax3SJe7UOr891yu-cr8-168" value="" style="whiteSpace=wrap;html=1;aspect=fixed;fillStyle=cross-hatch;fillColor=none;rotation=0;" vertex="1" parent="_Ax3SJe7UOr891yu-cr8-165">
          <mxGeometry y="56" width="28" height="28" as="geometry" />
        </mxCell>
        <mxCell id="_Ax3SJe7UOr891yu-cr8-169" value="" style="whiteSpace=wrap;html=1;aspect=fixed;fillStyle=cross-hatch;fillColor=none;rotation=0;" vertex="1" parent="_Ax3SJe7UOr891yu-cr8-165">
          <mxGeometry x="28" y="56" width="28" height="28" as="geometry" />
        </mxCell>
        <mxCell id="_Ax3SJe7UOr891yu-cr8-170" value="" style="whiteSpace=wrap;html=1;aspect=fixed;fillColor=none;fillStyle=cross-hatch;rotation=0;" vertex="1" parent="_Ax3SJe7UOr891yu-cr8-165">
          <mxGeometry x="56" y="56" width="28" height="28" as="geometry" />
        </mxCell>
        <mxCell id="_Ax3SJe7UOr891yu-cr8-73" value="&lt;font style=&quot;font-size: 24px;&quot; face=&quot;Times New Roman&quot;&gt;Sub-block 2&lt;/font&gt;" style="text;html=1;align=center;verticalAlign=middle;whiteSpace=wrap;rounded=0;" vertex="1" parent="1">
          <mxGeometry x="178.75" y="400" width="145" height="30" as="geometry" />
        </mxCell>
        <mxCell id="_Ax3SJe7UOr891yu-cr8-75" value="" style="endArrow=classic;html=1;rounded=0;entryX=0;entryY=0;entryDx=0;entryDy=5;entryPerimeter=0;" edge="1" parent="1" source="_Ax3SJe7UOr891yu-cr8-32" target="_Ax3SJe7UOr891yu-cr8-74">
          <mxGeometry width="50" height="50" relative="1" as="geometry">
            <mxPoint x="169.25" y="480" as="sourcePoint" />
            <mxPoint x="564.25" y="480" as="targetPoint" />
          </mxGeometry>
        </mxCell>
        <mxCell id="_Ax3SJe7UOr891yu-cr8-82" value="&lt;font style=&quot;font-size: 24px;&quot; face=&quot;Times New Roman&quot;&gt;Decoding on&lt;/font&gt;" style="text;html=1;align=center;verticalAlign=middle;whiteSpace=wrap;rounded=0;" vertex="1" parent="1">
          <mxGeometry x="541.25" y="470" width="130" height="30" as="geometry" />
        </mxCell>
        <mxCell id="_Ax3SJe7UOr891yu-cr8-84" style="edgeStyle=orthogonalEdgeStyle;rounded=0;orthogonalLoop=1;jettySize=auto;html=1;curved=0;exitX=0;exitY=1;exitDx=0;exitDy=-5;exitPerimeter=0;" edge="1" parent="1" source="_Ax3SJe7UOr891yu-cr8-72" target="_Ax3SJe7UOr891yu-cr8-32">
          <mxGeometry relative="1" as="geometry">
            <Array as="points">
              <mxPoint x="431.25" y="395" />
              <mxPoint x="431.25" y="395" />
            </Array>
          </mxGeometry>
        </mxCell>
        <mxCell id="_Ax3SJe7UOr891yu-cr8-85" value="&lt;font style=&quot;font-size: 24px;&quot; face=&quot;Times New Roman&quot;&gt;NACK&lt;/font&gt;" style="text;html=1;align=center;verticalAlign=middle;whiteSpace=wrap;rounded=0;" vertex="1" parent="1">
          <mxGeometry x="441.25" y="365" width="80" height="30" as="geometry" />
        </mxCell>
        <mxCell id="_Ax3SJe7UOr891yu-cr8-86" value="&lt;font style=&quot;font-size: 24px;&quot; face=&quot;Times New Roman&quot;&gt;Decoding fails&lt;/font&gt;" style="text;html=1;align=center;verticalAlign=middle;whiteSpace=wrap;rounded=0;" vertex="1" parent="1">
          <mxGeometry x="369.25" y="395" width="150" height="30" as="geometry" />
        </mxCell>
        <mxCell id="_Ax3SJe7UOr891yu-cr8-88" style="edgeStyle=orthogonalEdgeStyle;rounded=0;orthogonalLoop=1;jettySize=auto;html=1;curved=0;exitX=0;exitY=1;exitDx=0;exitDy=-5;exitPerimeter=0;" edge="1" parent="1" source="_Ax3SJe7UOr891yu-cr8-74" target="_Ax3SJe7UOr891yu-cr8-32">
          <mxGeometry relative="1" as="geometry">
            <Array as="points">
              <mxPoint x="281.25" y="545" />
              <mxPoint x="281.25" y="545" />
            </Array>
          </mxGeometry>
        </mxCell>
        <mxCell id="_Ax3SJe7UOr891yu-cr8-91" value="&lt;font style=&quot;font-size: 24px;&quot; face=&quot;Times New Roman&quot;&gt;ACK&lt;/font&gt;" style="text;html=1;align=center;verticalAlign=middle;whiteSpace=wrap;rounded=0;" vertex="1" parent="1">
          <mxGeometry x="451.25" y="515" width="80" height="30" as="geometry" />
        </mxCell>
        <mxCell id="_Ax3SJe7UOr891yu-cr8-92" value="&lt;font style=&quot;font-size: 24px;&quot; face=&quot;Times New Roman&quot;&gt;Decoding succeeds&lt;/font&gt;" style="text;html=1;align=center;verticalAlign=middle;whiteSpace=wrap;rounded=0;" vertex="1" parent="1">
          <mxGeometry x="331.25" y="545" width="187" height="30" as="geometry" />
        </mxCell>
        <mxCell id="_Ax3SJe7UOr891yu-cr8-115" style="edgeStyle=entityRelationEdgeStyle;rounded=0;orthogonalLoop=1;jettySize=auto;html=1;exitX=0.1;exitY=0.5;exitDx=0;exitDy=0;exitPerimeter=0;entryX=0;entryY=0.5;entryDx=0;entryDy=0;" edge="1" parent="1" source="_Ax3SJe7UOr891yu-cr8-114" target="_Ax3SJe7UOr891yu-cr8-54">
          <mxGeometry relative="1" as="geometry" />
        </mxCell>
        <mxCell id="_Ax3SJe7UOr891yu-cr8-114" value="" style="shape=curlyBracket;whiteSpace=wrap;html=1;rounded=1;flipH=1;labelPosition=right;verticalLabelPosition=middle;align=left;verticalAlign=middle;" vertex="1" parent="1">
          <mxGeometry x="71.25" y="250" width="20" height="140" as="geometry" />
        </mxCell>
        <mxCell id="_Ax3SJe7UOr891yu-cr8-117" style="edgeStyle=entityRelationEdgeStyle;rounded=0;orthogonalLoop=1;jettySize=auto;html=1;" edge="1" parent="1" source="_Ax3SJe7UOr891yu-cr8-116" target="_Ax3SJe7UOr891yu-cr8-9">
          <mxGeometry relative="1" as="geometry" />
        </mxCell>
        <mxCell id="_Ax3SJe7UOr891yu-cr8-116" value="" style="shape=curlyBracket;whiteSpace=wrap;html=1;rounded=1;flipH=1;labelPosition=right;verticalLabelPosition=middle;align=left;verticalAlign=middle;" vertex="1" parent="1">
          <mxGeometry x="71.25" y="390" width="20" height="140" as="geometry" />
        </mxCell>
        <mxCell id="_Ax3SJe7UOr891yu-cr8-119" style="edgeStyle=entityRelationEdgeStyle;rounded=0;orthogonalLoop=1;jettySize=auto;html=1;entryX=0;entryY=0.5;entryDx=0;entryDy=0;" edge="1" parent="1" source="_Ax3SJe7UOr891yu-cr8-118">
          <mxGeometry relative="1" as="geometry">
            <mxPoint x="191.25" y="634" as="targetPoint" />
          </mxGeometry>
        </mxCell>
        <mxCell id="_Ax3SJe7UOr891yu-cr8-118" value="" style="shape=curlyBracket;whiteSpace=wrap;html=1;rounded=1;flipH=1;labelPosition=right;verticalLabelPosition=middle;align=left;verticalAlign=middle;" vertex="1" parent="1">
          <mxGeometry x="71.25" y="530" width="20" height="140" as="geometry" />
        </mxCell>
        <mxCell id="_Ax3SJe7UOr891yu-cr8-121" value="&lt;font style=&quot;font-size: 24px;&quot; face=&quot;Times New Roman&quot;&gt;Mothercode&lt;/font&gt;" style="text;html=1;align=center;verticalAlign=middle;whiteSpace=wrap;rounded=0;rotation=-90;" vertex="1" parent="1">
          <mxGeometry x="-45" y="593.75" width="120" height="30" as="geometry" />
        </mxCell>
        <mxCell id="_Ax3SJe7UOr891yu-cr8-122" value="&lt;font style=&quot;font-size: 24px;&quot; face=&quot;Times New Roman&quot;&gt;Sub-block 3&lt;/font&gt;" style="text;html=1;align=center;verticalAlign=middle;whiteSpace=wrap;rounded=0;" vertex="1" parent="1">
          <mxGeometry x="178.75" y="590" width="145" height="30" as="geometry" />
        </mxCell>
        <mxCell id="_Ax3SJe7UOr891yu-cr8-124" value="" style="group;fillColor=#000000;fillStyle=hatch;" vertex="1" connectable="0" parent="1">
          <mxGeometry x="541.25" y="500" width="140" height="28" as="geometry" />
        </mxCell>
        <mxCell id="_Ax3SJe7UOr891yu-cr8-77" value="" style="whiteSpace=wrap;html=1;aspect=fixed;fillStyle=hatch;fillColor=none;" vertex="1" parent="_Ax3SJe7UOr891yu-cr8-124">
          <mxGeometry width="28" height="28" as="geometry" />
        </mxCell>
        <mxCell id="_Ax3SJe7UOr891yu-cr8-78" value="" style="whiteSpace=wrap;html=1;aspect=fixed;fillStyle=hatch;fillColor=none;" vertex="1" parent="_Ax3SJe7UOr891yu-cr8-124">
          <mxGeometry x="28" width="28" height="28" as="geometry" />
        </mxCell>
        <mxCell id="_Ax3SJe7UOr891yu-cr8-79" value="" style="whiteSpace=wrap;html=1;aspect=fixed;fillStyle=hatch;fillColor=none;" vertex="1" parent="_Ax3SJe7UOr891yu-cr8-124">
          <mxGeometry x="56" width="28" height="28" as="geometry" />
        </mxCell>
        <mxCell id="_Ax3SJe7UOr891yu-cr8-80" value="" style="whiteSpace=wrap;html=1;aspect=fixed;fillStyle=hatch;fillColor=none;" vertex="1" parent="_Ax3SJe7UOr891yu-cr8-124">
          <mxGeometry x="84" width="28" height="28" as="geometry" />
        </mxCell>
        <mxCell id="_Ax3SJe7UOr891yu-cr8-81" value="" style="whiteSpace=wrap;html=1;aspect=fixed;fillColor=none;fillStyle=hatch;" vertex="1" parent="_Ax3SJe7UOr891yu-cr8-124">
          <mxGeometry x="112" width="28" height="28" as="geometry" />
        </mxCell>
        <mxCell id="_Ax3SJe7UOr891yu-cr8-171" value="" style="group" vertex="1" connectable="0" parent="_Ax3SJe7UOr891yu-cr8-124">
          <mxGeometry width="140" height="28" as="geometry" />
        </mxCell>
        <mxCell id="_Ax3SJe7UOr891yu-cr8-172" value="" style="whiteSpace=wrap;html=1;aspect=fixed;fillStyle=hatch;fillColor=#000000;rounded=0;shadow=0;glass=0;" vertex="1" parent="_Ax3SJe7UOr891yu-cr8-171">
          <mxGeometry width="28" height="28" as="geometry" />
        </mxCell>
        <mxCell id="_Ax3SJe7UOr891yu-cr8-173" value="" style="whiteSpace=wrap;html=1;aspect=fixed;fillStyle=hatch;fillColor=#000000;" vertex="1" parent="_Ax3SJe7UOr891yu-cr8-171">
          <mxGeometry x="28" width="28" height="28" as="geometry" />
        </mxCell>
        <mxCell id="_Ax3SJe7UOr891yu-cr8-174" value="" style="whiteSpace=wrap;html=1;aspect=fixed;fillStyle=hatch;fillColor=#000000;" vertex="1" parent="_Ax3SJe7UOr891yu-cr8-171">
          <mxGeometry x="56" width="28" height="28" as="geometry" />
        </mxCell>
        <mxCell id="_Ax3SJe7UOr891yu-cr8-175" value="" style="whiteSpace=wrap;html=1;aspect=fixed;fillStyle=hatch;fillColor=#000000;" vertex="1" parent="_Ax3SJe7UOr891yu-cr8-171">
          <mxGeometry x="84" width="28" height="28" as="geometry" />
        </mxCell>
        <mxCell id="_Ax3SJe7UOr891yu-cr8-176" value="" style="whiteSpace=wrap;html=1;aspect=fixed;fillColor=#000000;fillStyle=hatch;" vertex="1" parent="_Ax3SJe7UOr891yu-cr8-171">
          <mxGeometry x="112" width="28" height="28" as="geometry" />
        </mxCell>
        <mxCell id="_Ax3SJe7UOr891yu-cr8-177" value="" style="group" vertex="1" connectable="0" parent="_Ax3SJe7UOr891yu-cr8-171">
          <mxGeometry width="140" height="28" as="geometry" />
        </mxCell>
        <mxCell id="_Ax3SJe7UOr891yu-cr8-178" value="" style="whiteSpace=wrap;html=1;aspect=fixed;fillStyle=hatch;fillColor=#000000;" vertex="1" parent="_Ax3SJe7UOr891yu-cr8-177">
          <mxGeometry width="28" height="28" as="geometry" />
        </mxCell>
        <mxCell id="_Ax3SJe7UOr891yu-cr8-179" value="" style="whiteSpace=wrap;html=1;aspect=fixed;fillStyle=hatch;fillColor=#000000;" vertex="1" parent="_Ax3SJe7UOr891yu-cr8-177">
          <mxGeometry x="28" width="28" height="28" as="geometry" />
        </mxCell>
        <mxCell id="_Ax3SJe7UOr891yu-cr8-180" value="" style="whiteSpace=wrap;html=1;aspect=fixed;fillStyle=hatch;fillColor=#000000;" vertex="1" parent="_Ax3SJe7UOr891yu-cr8-177">
          <mxGeometry x="56" width="28" height="28" as="geometry" />
        </mxCell>
        <mxCell id="_Ax3SJe7UOr891yu-cr8-181" value="" style="whiteSpace=wrap;html=1;aspect=fixed;fillStyle=hatch;fillColor=#000000;" vertex="1" parent="_Ax3SJe7UOr891yu-cr8-177">
          <mxGeometry x="84" width="28" height="28" as="geometry" />
        </mxCell>
        <mxCell id="_Ax3SJe7UOr891yu-cr8-182" value="" style="whiteSpace=wrap;html=1;aspect=fixed;fillColor=#000000;fillStyle=hatch;" vertex="1" parent="_Ax3SJe7UOr891yu-cr8-177">
          <mxGeometry x="112" width="28" height="28" as="geometry" />
        </mxCell>
        <mxCell id="_Ax3SJe7UOr891yu-cr8-183" value="" style="group;rotation=0;fillColor=#666666;" vertex="1" connectable="0" parent="_Ax3SJe7UOr891yu-cr8-177">
          <mxGeometry width="140" height="28" as="geometry" />
        </mxCell>
        <mxCell id="_Ax3SJe7UOr891yu-cr8-184" value="" style="whiteSpace=wrap;html=1;aspect=fixed;fillStyle=hatch;fillColor=none;rotation=0;autosize=0;treeFolding=0;fixDash=0;" vertex="1" parent="_Ax3SJe7UOr891yu-cr8-183">
          <mxGeometry width="28" height="28" as="geometry" />
        </mxCell>
        <mxCell id="_Ax3SJe7UOr891yu-cr8-185" value="" style="whiteSpace=wrap;html=1;aspect=fixed;fillStyle=hatch;fillColor=none;rotation=0;" vertex="1" parent="_Ax3SJe7UOr891yu-cr8-183">
          <mxGeometry x="28" width="28" height="28" as="geometry" />
        </mxCell>
        <mxCell id="_Ax3SJe7UOr891yu-cr8-186" value="" style="whiteSpace=wrap;html=1;aspect=fixed;fillStyle=hatch;fillColor=none;rotation=0;" vertex="1" parent="_Ax3SJe7UOr891yu-cr8-183">
          <mxGeometry x="56" width="28" height="28" as="geometry" />
        </mxCell>
        <mxCell id="_Ax3SJe7UOr891yu-cr8-187" value="" style="whiteSpace=wrap;html=1;aspect=fixed;fillStyle=hatch;fillColor=none;rotation=0;" vertex="1" parent="_Ax3SJe7UOr891yu-cr8-183">
          <mxGeometry x="84" width="28" height="28" as="geometry" />
        </mxCell>
        <mxCell id="_Ax3SJe7UOr891yu-cr8-188" value="" style="whiteSpace=wrap;html=1;aspect=fixed;fillColor=none;fillStyle=hatch;rotation=0;" vertex="1" parent="_Ax3SJe7UOr891yu-cr8-183">
          <mxGeometry x="112" width="28" height="28" as="geometry" />
        </mxCell>
        <mxCell id="_Ax3SJe7UOr891yu-cr8-95" value="" style="group;rotation=90;fillColor=#666666;" vertex="1" connectable="0" parent="1">
          <mxGeometry x="-24.75" y="306" width="140" height="28" as="geometry" />
        </mxCell>
        <mxCell id="_Ax3SJe7UOr891yu-cr8-96" value="" style="whiteSpace=wrap;html=1;aspect=fixed;fillStyle=hatch;fillColor=none;rotation=90;autosize=0;treeFolding=0;fixDash=0;" vertex="1" parent="_Ax3SJe7UOr891yu-cr8-95">
          <mxGeometry x="56" y="-56" width="28" height="28" as="geometry" />
        </mxCell>
        <mxCell id="_Ax3SJe7UOr891yu-cr8-97" value="" style="whiteSpace=wrap;html=1;aspect=fixed;fillStyle=hatch;fillColor=none;rotation=90;" vertex="1" parent="_Ax3SJe7UOr891yu-cr8-95">
          <mxGeometry x="56" y="-28" width="28" height="28" as="geometry" />
        </mxCell>
        <mxCell id="_Ax3SJe7UOr891yu-cr8-98" value="" style="whiteSpace=wrap;html=1;aspect=fixed;fillStyle=hatch;fillColor=none;rotation=90;" vertex="1" parent="_Ax3SJe7UOr891yu-cr8-95">
          <mxGeometry x="56" width="28" height="28" as="geometry" />
        </mxCell>
        <mxCell id="_Ax3SJe7UOr891yu-cr8-99" value="" style="whiteSpace=wrap;html=1;aspect=fixed;fillStyle=hatch;fillColor=none;rotation=90;" vertex="1" parent="_Ax3SJe7UOr891yu-cr8-95">
          <mxGeometry x="56" y="28" width="28" height="28" as="geometry" />
        </mxCell>
        <mxCell id="_Ax3SJe7UOr891yu-cr8-100" value="" style="whiteSpace=wrap;html=1;aspect=fixed;fillColor=none;fillStyle=hatch;rotation=90;" vertex="1" parent="_Ax3SJe7UOr891yu-cr8-95">
          <mxGeometry x="56" y="56" width="28" height="28" as="geometry" />
        </mxCell>
        <mxCell id="_Ax3SJe7UOr891yu-cr8-101" value="" style="group;rotation=90;fillColor=#B3B3B3;" vertex="1" connectable="0" parent="1">
          <mxGeometry x="-24.75" y="446" width="140" height="28" as="geometry" />
        </mxCell>
        <mxCell id="_Ax3SJe7UOr891yu-cr8-125" value="" style="group;fillColor=#CCCCCC;" vertex="1" connectable="0" parent="_Ax3SJe7UOr891yu-cr8-101">
          <mxGeometry x="56" y="-56" width="28" height="140" as="geometry" />
        </mxCell>
        <mxCell id="_Ax3SJe7UOr891yu-cr8-102" value="" style="whiteSpace=wrap;html=1;aspect=fixed;fillStyle=cross-hatch;fillColor=none;rotation=90;" vertex="1" parent="_Ax3SJe7UOr891yu-cr8-125">
          <mxGeometry width="28" height="28" as="geometry" />
        </mxCell>
        <mxCell id="_Ax3SJe7UOr891yu-cr8-103" value="" style="whiteSpace=wrap;html=1;aspect=fixed;fillStyle=cross-hatch;fillColor=none;rotation=90;" vertex="1" parent="_Ax3SJe7UOr891yu-cr8-125">
          <mxGeometry y="28" width="28" height="28" as="geometry" />
        </mxCell>
        <mxCell id="_Ax3SJe7UOr891yu-cr8-104" value="" style="whiteSpace=wrap;html=1;aspect=fixed;fillStyle=cross-hatch;fillColor=none;rotation=90;" vertex="1" parent="_Ax3SJe7UOr891yu-cr8-125">
          <mxGeometry y="56" width="28" height="28" as="geometry" />
        </mxCell>
        <mxCell id="_Ax3SJe7UOr891yu-cr8-105" value="" style="whiteSpace=wrap;html=1;aspect=fixed;fillStyle=cross-hatch;fillColor=none;rotation=90;" vertex="1" parent="_Ax3SJe7UOr891yu-cr8-125">
          <mxGeometry y="84" width="28" height="28" as="geometry" />
        </mxCell>
        <mxCell id="_Ax3SJe7UOr891yu-cr8-106" value="" style="whiteSpace=wrap;html=1;aspect=fixed;fillColor=none;fillStyle=cross-hatch;rotation=90;" vertex="1" parent="_Ax3SJe7UOr891yu-cr8-125">
          <mxGeometry y="112" width="28" height="28" as="geometry" />
        </mxCell>
        <mxCell id="_Ax3SJe7UOr891yu-cr8-107" value="" style="group;rotation=90;" vertex="1" connectable="0" parent="1">
          <mxGeometry x="-24.75" y="586" width="140" height="28" as="geometry" />
        </mxCell>
        <mxCell id="_Ax3SJe7UOr891yu-cr8-108" value="" style="whiteSpace=wrap;html=1;aspect=fixed;fillStyle=dashed;fillColor=none;rotation=90;" vertex="1" parent="_Ax3SJe7UOr891yu-cr8-107">
          <mxGeometry x="56" y="-56" width="28" height="28" as="geometry" />
        </mxCell>
        <mxCell id="_Ax3SJe7UOr891yu-cr8-109" value="" style="whiteSpace=wrap;html=1;aspect=fixed;fillStyle=dashed;fillColor=none;rotation=90;" vertex="1" parent="_Ax3SJe7UOr891yu-cr8-107">
          <mxGeometry x="56" y="-28" width="28" height="28" as="geometry" />
        </mxCell>
        <mxCell id="_Ax3SJe7UOr891yu-cr8-110" value="" style="whiteSpace=wrap;html=1;aspect=fixed;fillStyle=dashed;fillColor=none;rotation=90;" vertex="1" parent="_Ax3SJe7UOr891yu-cr8-107">
          <mxGeometry x="56" width="28" height="28" as="geometry" />
        </mxCell>
        <mxCell id="_Ax3SJe7UOr891yu-cr8-111" value="" style="whiteSpace=wrap;html=1;aspect=fixed;fillStyle=dashed;fillColor=none;rotation=90;" vertex="1" parent="_Ax3SJe7UOr891yu-cr8-107">
          <mxGeometry x="56" y="28" width="28" height="28" as="geometry" />
        </mxCell>
        <mxCell id="_Ax3SJe7UOr891yu-cr8-112" value="" style="whiteSpace=wrap;html=1;aspect=fixed;fillColor=none;fillStyle=dashed;rotation=90;" vertex="1" parent="_Ax3SJe7UOr891yu-cr8-107">
          <mxGeometry x="56" y="56" width="28" height="28" as="geometry" />
        </mxCell>
        <mxCell id="_Ax3SJe7UOr891yu-cr8-139" value="" style="group;rotation=0;" vertex="1" connectable="0" parent="1">
          <mxGeometry x="191.25" y="620" width="140" height="28" as="geometry" />
        </mxCell>
        <mxCell id="_Ax3SJe7UOr891yu-cr8-140" value="" style="whiteSpace=wrap;html=1;aspect=fixed;fillStyle=dashed;fillColor=none;rotation=0;" vertex="1" parent="_Ax3SJe7UOr891yu-cr8-139">
          <mxGeometry width="28" height="28" as="geometry" />
        </mxCell>
        <mxCell id="_Ax3SJe7UOr891yu-cr8-141" value="" style="whiteSpace=wrap;html=1;aspect=fixed;fillStyle=dashed;fillColor=none;rotation=0;" vertex="1" parent="_Ax3SJe7UOr891yu-cr8-139">
          <mxGeometry x="28" width="28" height="28" as="geometry" />
        </mxCell>
        <mxCell id="_Ax3SJe7UOr891yu-cr8-142" value="" style="whiteSpace=wrap;html=1;aspect=fixed;fillStyle=dashed;fillColor=none;rotation=0;" vertex="1" parent="_Ax3SJe7UOr891yu-cr8-139">
          <mxGeometry x="56" width="28" height="28" as="geometry" />
        </mxCell>
        <mxCell id="_Ax3SJe7UOr891yu-cr8-143" value="" style="whiteSpace=wrap;html=1;aspect=fixed;fillStyle=dashed;fillColor=none;rotation=0;" vertex="1" parent="_Ax3SJe7UOr891yu-cr8-139">
          <mxGeometry x="84" width="28" height="28" as="geometry" />
        </mxCell>
        <mxCell id="_Ax3SJe7UOr891yu-cr8-144" value="" style="whiteSpace=wrap;html=1;aspect=fixed;fillColor=none;fillStyle=dashed;rotation=0;" vertex="1" parent="_Ax3SJe7UOr891yu-cr8-139">
          <mxGeometry x="112" width="28" height="28" as="geometry" />
        </mxCell>
      </root>
    </mxGraphModel>
  </diagram>
</mxfile>
